<?xml version="1.0" encoding="UTF-8"?>
<svg width="205px" height="205px" viewBox="0 0 205 205" version="1.1" xmlns="http://www.w3.org/2000/svg" xmlns:xlink="http://www.w3.org/1999/xlink">
    <!-- Generator: Sketch 51.3 (57544) - http://www.bohemiancoding.com/sketch -->
    <title>fotc-alternative-logo</title>
    <desc>Created with Sketch.</desc>
    <defs></defs>
    <g id="Page-1" stroke="none" stroke-width="1" fill="none" fill-rule="evenodd">
        <g id="fotc-alternative-logo" stroke-width="5">
            <g id="alternative-logo">
                <circle id="Path" stroke="#7E56C2" fill="#7E56C2" cx="102.5" cy="102.5" r="100"></circle>
                <path d="M78.722921,81.5972708 C78.4257545,81.3360375 78.1362789,81.0645981 77.8548651,80.7831843 C70.715045,73.6433642 70.715045,62.0674285 77.8548651,54.9276083 C84.4125196,48.3699538 94.7162181,47.8334655 101.886147,53.3280092 C109.057993,47.7576538 119.42345,48.2666057 126.011709,54.8548651 C133.15153,61.9946853 133.15153,73.570621 126.011709,80.7104412 L101.9239,104.79825 L78.722921,81.5972708 Z M42.5,154.5 L42.5,164.5 L161.5,164.5 L161.5,154.5 L148.5,154.5 L148.5,69 C148.5,43.3187591 127.681241,22.5 102,22.5 C76.3187591,22.5 55.5,43.3187591 55.5,69 L55.5,154.5 L42.5,154.5 Z M132.5,136 L71.5,136 L71.5,126 L132.5,126 L132.5,136 Z M71.5,125 L71.5,115 L132.5,115 L132.5,125 L71.5,125 Z" id="Combined-Shape" stroke="#FFFFFF" fill="#FFFFFF"></path>
            </g>
        </g>
    </g>
</svg>