<?xml version="1.0" standalone="no"?>
<!DOCTYPE svg PUBLIC "-//W3C//DTD SVG 20010904//EN"
 "http://www.w3.org/TR/2001/REC-SVG-20010904/DTD/svg10.dtd">
<svg version="1.0" xmlns="http://www.w3.org/2000/svg"
 width="700.000000pt" height="700.000000pt" viewBox="0 0 700.000000 700.000000"
 preserveAspectRatio="xMidYMid meet">
<metadata>
Created by potrace 1.14, written by Peter Selinger 2001-2017
</metadata>
<g transform="translate(0.000000,700.000000) scale(0.100000,-0.100000)"
fill="#000000" stroke="none">
<path d="M3280 6994 c-19 -2 -84 -9 -145 -14 -648 -63 -1297 -329 -1820 -746
-147 -117 -459 -431 -569 -574 -410 -529 -654 -1132 -728 -1795 -17 -154 -17
-585 0 -730 85 -722 351 -1347 803 -1885 121 -144 350 -368 494 -483 645 -516
1461 -790 2280 -764 518 16 988 131 1440 352 750 366 1358 1006 1683 1770 255
600 339 1257 242 1898 -93 609 -341 1177 -726 1662 -111 139 -408 437 -541
542 -530 420 -1120 668 -1783 749 -117 15 -553 27 -630 18z m493 -704 c158
-27 317 -80 467 -156 163 -84 290 -175 415 -299 259 -257 415 -559 482 -930
14 -80 17 -263 20 -1592 l4 -1503 219 0 220 0 0 -255 0 -255 -2115 0 -2115 0
0 255 0 255 220 0 220 0 0 1463 c0 934 4 1494 10 1552 62 533 363 997 826
1267 192 113 442 194 674 218 119 12 317 4 453 -20z"/>
<path d="M2955 5201 c-91 -26 -163 -69 -235 -141 -77 -77 -113 -141 -140 -246
-34 -133 -23 -240 40 -369 37 -77 53 -95 450 -490 l410 -410 414 415 c355 355
418 424 445 477 110 220 67 471 -109 637 -109 102 -219 146 -371 146 -125 0
-235 -38 -337 -116 l-44 -33 -51 38 c-29 21 -71 48 -94 60 -101 51 -266 65
-378 32z"/>
<path d="M2530 2905 l0 -85 955 0 955 0 0 85 0 85 -955 0 -955 0 0 -85z"/>
<path d="M2530 2525 l0 -85 955 0 955 0 0 85 0 85 -955 0 -955 0 0 -85z"/>
</g>
</svg>
