<?xml version="1.0" encoding="UTF-8"?>
<svg viewBox="0 0 16 16" version="1.1" xmlns="http://www.w3.org/2000/svg" xmlns:xlink="http://www.w3.org/1999/xlink">
    <!-- Generator: Sketch 51.3 (57544) - http://www.bohemiancoding.com/sketch -->
    <title>fotc-icon</title>
    <desc>Friends of Toowong Cemetery</desc>
    <defs></defs>
    <g id="Page-1" stroke="none" stroke-width="1" fill="none" fill-rule="evenodd">
        <g id="fotc-icon" transform="translate(-3.000000, -1.000000)">
            <g id="fotc-icon">
                <rect id="Rectangle-3" x="0" y="0" width="16" height="16"></rect>
                <path d="M6.27760356,6.22599895 L7.95503613,7.90343152 L9.69708819,6.16137945 C10.1781426,5.68032505 10.1781426,4.90038178 9.69708819,4.41932738 C9.2160338,3.93827299 8.43609052,3.93827299 7.95503613,4.41932738 L7.95292284,4.42144067 C7.47158677,3.94395345 6.6943127,3.94514153 6.21444933,4.4250049 C5.73339494,4.90605929 5.73339494,5.68600257 6.21444933,6.16705697 C6.23497222,6.18757985 6.2560391,6.20722718 6.27760356,6.22599895 Z M11.7853659,5.38536585 L11.7853659,11.8634146 L12.8,11.8634146 L12.8,13.0341463 L3.12195122,13.0341463 L3.12195122,11.8634146 L4.13658537,11.8634146 L4.13658537,5.38536585 C4.13658537,3.27321344 5.8488232,1.56097561 7.96097561,1.56097561 C10.073128,1.56097561 11.7853659,3.27321344 11.7853659,5.38536585 Z M5.77560976,10.4195122 L10.1463415,10.4195122 L10.1463415,10.0292683 L5.77560976,10.0292683 L5.77560976,10.4195122 Z M5.77560976,9.56097561 L10.1463415,9.56097561 L10.1463415,9.17073171 L5.77560976,9.17073171 L5.77560976,9.56097561 Z" id="fotc-icon" fill="#000000"></path>
            </g>
        </g>
    </g>
</svg>
